<?xml version="1.0" standalone="no"?>
<!DOCTYPE svg PUBLIC "-//W3C//DTD SVG 1.1//EN" "http://www.w3.org/Graphics/SVG/1.1/DTD/svg11.dtd" >
<svg xmlns="http://www.w3.org/2000/svg">
<metadata></metadata>
<defs>
<font id="TradeGothicLTStdItalic" horiz-adv-x="1024" >
<font-face units-per-em="2048" ascent="1479" descent="-569" />
<missing-glyph horiz-adv-x="624" />
<glyph unicode="&#xfb01;" horiz-adv-x="1138" d="M209 0l209 938h-180l26 127h180l27 121q21 94 50.5 155.5t71.5 96t90.5 48t117.5 13.5q27 0 129 -10l-29 -131q-10 1 -46.5 7.5t-55.5 6.5q-77 0 -114.5 -32t-57.5 -119l-35 -156h231l-26 -127h-232l-209 -938h-147zM813 0l236 1065h147l-235 -1065h-148zM1106 1323 l39 176h147l-39 -176h-147z" />
<glyph unicode="&#xfb02;" horiz-adv-x="1138" d="M209 0l209 938h-180l26 127h180l27 121q21 94 50.5 155.5t71.5 96t90.5 48t117.5 13.5q27 0 129 -10l-29 -131q-10 1 -46.5 7.5t-55.5 6.5q-77 0 -114.5 -32t-57.5 -119l-35 -156h231l-26 -127h-232l-209 -938h-147zM813 0l328 1479h147l-327 -1479h-148z" />
<glyph horiz-adv-x="0" />
<glyph horiz-adv-x="2048" />
<glyph unicode=" "  horiz-adv-x="624" />
<glyph unicode="&#x09;" horiz-adv-x="624" />
<glyph unicode="&#xa0;" horiz-adv-x="624" />
<glyph unicode="!" horiz-adv-x="681" d="M240 0l49 225h200l-49 -225h-200zM379 467l180 1012h217l-266 -1012h-131z" />
<glyph unicode="&#x22;" horiz-adv-x="681" d="M360 926l123 553h127l-123 -553h-127zM604 926l123 553h127l-123 -553h-127z" />
<glyph unicode="#" horiz-adv-x="1251" d="M229 471l25 115h219l111 311h-203l27 115h219l166 467h127l-166 -467h278l164 467h127l-164 -467h193l-27 -115h-209l-112 -311h194l-24 -115h-211l-168 -471h-127l168 471h-277l-168 -471h-127l168 471h-203zM600 586h277l112 311h-278z" />
<glyph unicode="$" horiz-adv-x="1251" d="M172 268l139 90q24 -53 61 -101t96.5 -87t123.5 -43l127 571q-26 6 -50.5 14t-54.5 20t-55.5 26.5t-53 33.5t-47 41.5t-38.5 51.5t-26 61.5t-10 72t9 83.5q21 92 72 165.5t120 119t147.5 69t158.5 23.5l35 157h139l-35 -157q116 -8 201.5 -78.5t124.5 -163.5l-125 -86 q-30 76 -91.5 131t-138.5 70l-118 -535q69 -24 121 -47.5t97 -52.5t71 -61t44.5 -73t17.5 -88t-11 -106q-25 -111 -105 -201t-190 -139t-226 -49l-55 -254h-139l55 254q-70 1 -132 25t-110 66t-82 83.5t-67 93.5zM547 1126q-49 -217 205 -272l110 498q-120 3 -207.5 -60.5 t-107.5 -165.5zM731 127q118 6 218 75t124 175q6 29 6.5 55.5t-4 47.5t-15 40t-22 33.5t-30 28.5t-35 24t-40 20t-42 17t-43.5 16z" />
<glyph unicode="%" horiz-adv-x="1820" d="M375 1139q32 144 153.5 242t264.5 98t220.5 -98t45.5 -242t-153.5 -242t-264.5 -98t-220.5 98t-45.5 242zM420 -20l1186 1519h120l-1185 -1519h-121zM502 1139q-20 -94 28 -153.5t140 -59.5t167 59.5t95 153.5q21 94 -27.5 153.5t-140.5 59.5t-166 -59.5t-96 -153.5z M1090 340q32 144 153 242t264 98t221 -98t46 -242t-153.5 -242t-264.5 -98t-220.5 98t-45.5 242zM1217 340q-21 -94 27 -153.5t140 -59.5t167 59.5t96 153.5t-27.5 153.5t-140.5 59.5t-166 -59.5t-96 -153.5z" />
<glyph unicode="&#x26;" horiz-adv-x="1366" d="M178.5 228q-19.5 78 1.5 175q52 245 420 447q-32 72 -44.5 165.5t5.5 188.5q30 129 138 212t259 83q131 0 201.5 -73t42.5 -201q-14 -61 -54.5 -120t-105 -113t-115.5 -90t-126 -83q68 -203 233 -446q48 48 110.5 153t106.5 219l127 -32q-47 -117 -120.5 -241 t-143.5 -200q35 -49 104.5 -87t112.5 -38l-33 -147h-53q-56 0 -131.5 43t-126.5 104q-194 -167 -459 -167q-86 0 -159 30t-122 85t-68.5 133zM340.5 271.5q13.5 -51.5 50.5 -85.5t85.5 -50.5t103.5 -16.5q174 0 325 123q-173 270 -262 495q-60 -34 -101 -62.5t-85 -70 t-72.5 -94t-42.5 -117.5q-15 -70 -1.5 -121.5zM725 1198q-23 -95 27 -264q103 58 185 135t99 154q14 66 -20 107.5t-92 41.5q-77 0 -130.5 -52.5t-68.5 -121.5z" />
<glyph unicode="'" horiz-adv-x="454" d="M369 926l123 553h126l-122 -553h-127z" />
<glyph unicode="(" horiz-adv-x="681" d="M283 668q51 226 169.5 438t295.5 393h159q-194 -202 -309.5 -401t-169.5 -441q-26 -114 -30 -224t12 -213.5t47 -198.5t78 -193h-152q-202 379 -100 840z" />
<glyph unicode=")" horiz-adv-x="681" d="M68 -172q196 202 311 401t168 441q26 114 30.5 224t-11.5 213.5t-47 198.5t-79 193h152q205 -378 100 -840q-50 -226 -168.5 -438t-296.5 -393h-159z" />
<glyph unicode="*" d="M410 1161l65 133l252 -133l14 8l23 310h137l-104 -305l12 -13l301 142l20 -138l-319 -63l-10 -17l170 -217l-129 -86l-90 275h-17l-209 -271l-88 80l264 234v14z" />
<glyph unicode="+" horiz-adv-x="1228" d="M186 469l29 127h469l102 469h127l-102 -469h469l-29 -127h-469l-104 -469h-127l104 469h-469z" />
<glyph unicode="," horiz-adv-x="624" d="M129 -303l164 303h-82l49 225h201l-49 -225l-197 -303h-86z" />
<glyph unicode="-" horiz-adv-x="681" d="M186 469l29 127h516l-29 -127h-516z" />
<glyph unicode="." horiz-adv-x="624" d="M211 0l49 225h201l-49 -225h-201z" />
<glyph unicode="/" horiz-adv-x="569" d="M-20 -20l813 1519h125l-816 -1519h-122z" />
<glyph unicode="0" horiz-adv-x="1251" d="M225.5 394.5q-2.5 143.5 40.5 344.5q87 389 263.5 574.5t426.5 185.5q123 0 208 -43.5t134.5 -136t52.5 -236t-40 -344.5q-87 -389 -263.5 -574t-426.5 -185q-123 0 -208 43.5t-135 135.5t-52.5 235.5zM383 375.5q13 -140.5 78.5 -205t187.5 -64.5q184 0 308 151t198 482 q52 223 39.5 363.5t-77.5 205t-187 64.5q-184 0 -309 -151.5t-199 -481.5q-52 -223 -39 -363.5z" />
<glyph unicode="1" horiz-adv-x="1251" d="M317 0l29 127h256l266 1202l-290 -29l20 97q15 4 55 15t58.5 16.5t52.5 15.5t54.5 17.5t44.5 17.5t42 20h148l-303 -1372h251l-28 -127h-656z" />
<glyph unicode="2" horiz-adv-x="1251" d="M135 0l35 156q74 104 167.5 194t181 151.5t178.5 118.5t169.5 107t144 103.5t111.5 122t64 149.5q29 129 -34 199.5t-204 70.5q-101 0 -190 -50.5t-144 -120.5t-86 -150l-139 32q187 416 590 416q123 0 214 -44.5t134 -135t16 -213.5q-20 -92 -74.5 -174t-129 -147 t-162 -125t-182.5 -120t-181 -119.5t-165.5 -136t-129.5 -157.5h805l-28 -127h-961z" />
<glyph unicode="3" horiz-adv-x="1251" d="M129 270l137 82q62 -117 150.5 -181.5t201.5 -64.5q162 0 271.5 77t140.5 210q35 161 -48 246.5t-298 85.5h-145l28 127h88q218 0 335.5 68.5t148.5 207.5q24 109 -40.5 176.5t-174.5 67.5q-66 0 -120 -13t-103 -43t-88 -62.5t-93 -86.5l-102 82q110 117 238 183.5 t294 66.5q198 0 290.5 -98t53.5 -271q-27 -124 -111 -206.5t-190 -120.5q260 -110 195 -393q-42 -191 -205.5 -310.5t-392.5 -119.5q-81 0 -152 19.5t-120 49t-88.5 70t-62.5 77t-38 74.5z" />
<glyph unicode="4" horiz-adv-x="1251" d="M156 348l26 127l834 1004h217l-223 -1004h254l-27 -127h-254l-78 -348h-147l78 348h-680zM338 475h524l189 848h-7z" />
<glyph unicode="5" horiz-adv-x="1251" d="M205 262l149 70q34 -105 107.5 -165.5t185.5 -60.5q101 0 186.5 39t154 130t97.5 225q37 165 -30 268.5t-219 103.5q-105 0 -198.5 -59t-162.5 -164l-123 29l244 801h758l-29 -127h-635l-141 -473q160 120 330 120q94 0 171 -31.5t130 -93.5t70 -156t-9 -218 q-15 -71 -47 -141t-86.5 -139t-123.5 -122t-165 -85.5t-205 -32.5q-73 0 -133.5 16t-102 41.5t-76 64t-56 75.5t-41.5 85z" />
<glyph unicode="6" horiz-adv-x="1251" d="M237 399.5q0 116.5 33 264.5q39 176 111.5 327.5t172.5 265t231 178t276 64.5q112 0 192 -25.5t109 -60.5l-92 -125q-44 43 -97 63.5t-135 20.5q-90 0 -178 -37.5t-168.5 -111t-145 -194.5t-100.5 -275q98 83 201.5 129.5t243.5 46.5q85 0 156.5 -29.5t122.5 -88.5 t67.5 -148t-8.5 -209q-25 -114 -85.5 -206.5t-140 -150t-171 -88t-185.5 -30.5q-95 0 -168.5 22.5t-129 73.5t-84 129t-28.5 194.5zM391 487q-20 -105 5 -191t94.5 -138t173.5 -52q154 0 264.5 95.5t144.5 249.5q36 163 -35 257.5t-196 94.5q-137 0 -276 -96t-175 -220z" />
<glyph unicode="7" horiz-adv-x="1251" d="M293 0l907 1352h-749l28 127h938l-20 -90l-932 -1389h-172z" />
<glyph unicode="8" horiz-adv-x="1251" d="M164.5 256.5q-5.5 60.5 7.5 128.5q29 132 140 232.5t272 168.5l2 5q-114 46 -164 135t-25 204q40 176 194 272.5t365 96.5q138 0 236 -41t142.5 -125.5t17.5 -202.5q-25 -115 -114 -204t-222 -135l-2 -5q130 -51 198 -154.5t37 -246.5q-40 -178 -204 -291.5t-424 -113.5 q-106 0 -190.5 20.5t-138.5 57t-88 87.5t-39.5 111.5zM322 318.5q4 -33.5 15.5 -64.5t38.5 -58t63.5 -47t90.5 -31.5t119 -11.5q96 0 177.5 25t135 66t87 89t45.5 99q4 33 5 60.5t-11.5 53.5t-26.5 47t-40 42t-52 38t-62 34t-71 31t-78 30q-72 -28 -118.5 -48.5t-106 -53.5 t-96.5 -64.5t-67.5 -75.5t-41.5 -94q-10 -33 -6 -66.5zM555 1139q-12 -57 9 -106.5t65.5 -84t89.5 -57t94 -37.5q143 34 253 109t132 176q13 59 -3.5 105t-56 73.5t-92.5 41t-116 13.5q-85 0 -161 -23t-136 -77.5t-78 -132.5z" />
<glyph unicode="9" horiz-adv-x="1251" d="M217 66l92 124q44 -42 98 -63t136 -21q184 0 347.5 162t242.5 457q-98 -83 -201.5 -129.5t-243.5 -46.5q-85 0 -156.5 29.5t-122.5 88.5t-67.5 148t8.5 209q25 114 85.5 206.5t140 150t171 88t185.5 30.5q95 0 168.5 -22.5t129 -73.5t84 -129t28.5 -194.5t-33 -264.5 q-39 -176 -111.5 -327.5t-172.5 -265t-231 -178t-276 -64.5q-112 0 -192 25.5t-109 60.5zM506 1028q-36 -163 35 -257.5t196 -94.5q131 0 249.5 76.5t189.5 197.5q40 194 -29.5 308t-228.5 114q-154 0 -266 -95.5t-146 -248.5z" />
<glyph unicode=":" horiz-adv-x="624" d="M211 0l49 225h201l-49 -225h-201zM342 594l51 225h201l-51 -225h-201z" />
<glyph unicode=";" horiz-adv-x="624" d="M129 -303l164 303h-82l49 225h201l-49 -225l-197 -303h-86zM342 594l51 225h201l-51 -225h-201z" />
<glyph unicode="&#x3c;" horiz-adv-x="1228" d="M199 475l26 115l1145 475l-27 -127l-983 -406l803 -405l-28 -127z" />
<glyph unicode="=" horiz-adv-x="1228" d="M139 260l29 127h1065l-29 -127h-1065zM231 678l29 127h1065l-29 -127h-1065z" />
<glyph unicode="&#x3e;" horiz-adv-x="1228" d="M94 0l29 127l983 405l-803 406l27 127l936 -473l-27 -119z" />
<glyph unicode="?" horiz-adv-x="909" d="M276 0l50 225h200l-49 -225h-201zM391 1274q75 110 173.5 167.5t209.5 57.5q65 0 120 -20.5t93 -60t52 -97.5t-1 -133q-16 -73 -65 -142t-108.5 -123t-118.5 -106t-106 -112.5t-60 -122.5l-25 -115h-139l24 113q16 72 53 136t80.5 107.5t93.5 89.5t92.5 84.5t77 90.5 t46.5 108q15 70 -15.5 123t-115.5 53q-71 0 -129.5 -36.5t-122.5 -121.5z" />
<glyph unicode="@" horiz-adv-x="1638" d="M238 493.5q-11 112.5 14 239.5q47 212 189 388.5t338.5 277t402.5 100.5q141 0 259 -46t193.5 -129.5t107 -199t-0.5 -254.5q-25 -115 -78.5 -213.5t-118 -165t-138 -114t-141 -69t-124.5 -21.5q-60 0 -92 36.5t-23 90.5l-4 -2q-60 -53 -133 -89t-139 -36 q-128 0 -192 94.5t-34 228.5q31 137 116 264.5t210 211t254 83.5q86 0 138.5 -37.5t72.5 -119.5l67 123h138l-289 -564q-2 -5 -9.5 -20t-13 -26.5t-12.5 -28t-9 -29t-0.5 -24t10 -17.5t24.5 -6q74 0 156.5 65t144.5 164t84 199q27 124 3.5 221t-87 163.5t-158.5 101 t-211 34.5q-132 0 -257.5 -49.5t-224 -135t-170.5 -202.5t-102 -248q-32 -135 -7.5 -249t87.5 -197t166 -129.5t229 -46.5q155 0 301 57.5t255 163.5h155q-133 -170 -331.5 -261t-407.5 -91q-125 0 -233 38t-185 106t-128 162.5t-62 207zM692 631q-21 -92 3 -146.5t93 -54.5 q67 0 139.5 40.5t129 101.5t98 132t55.5 134q20 93 -13 140.5t-93 47.5q-71 0 -142 -38.5t-124.5 -97.5t-92.5 -127.5t-53 -131.5z" />
<glyph unicode="A" horiz-adv-x="1251" d="M49 0l782 1479h244l127 -1479h-172l-37 463h-530l-242 -463h-172zM535 602h448l-43 762h-22z" />
<glyph unicode="B" horiz-adv-x="1366" d="M221 0l328 1479h545q188 -1 277 -105q65 -76 65 -179q0 -38 -9 -81q-58 -254 -325 -340v-4q120 -32 176 -134q37 -67 38 -148q0 -43 -11 -91q-19 -86 -62.5 -155.5t-117 -125t-186.5 -86t-259 -30.5h-459zM416 139h307q183 0 286 65t134 202q8 36 8 68q0 94 -65 152 q-87 80 -263 79h-282zM571 844h287q173 0 275.5 73.5t126.5 178.5q9 42 9 76q0 68 -37 108q-56 60 -198 59h-352z" />
<glyph unicode="C" horiz-adv-x="1251" d="M250 739q79 360 272.5 560t460.5 200q201 0 301 -111t105 -319l-162 -45q-6 168 -72 252t-223 84q-169 0 -309.5 -158t-208.5 -463q-32 -147 -33 -259q0 -124 41 -206q76 -154 268 -155q82 0 151 28.5t122 81.5t91 110t74 132l142 -29q-214 -462 -623 -462 q-259 0 -369 192q-63 109 -64 278q0 128 36 289z" />
<glyph unicode="D" horiz-adv-x="1366" d="M205 0l327 1479h398q308 0 446 -192q87 -122 87 -309q0 -109 -29 -239q-36 -163 -110 -298.5t-179.5 -233.5t-246.5 -152.5t-304 -54.5h-389zM399 139h222q255 0 419 151.5t230 448.5q26 129 26 227q0 25 -2 49q-8 114 -62 186t-137 105t-200 33h-229z" />
<glyph unicode="E" horiz-adv-x="1251" d="M221 0l328 1479h887l-31 -140h-723l-111 -495h514l-30 -139h-514l-125 -566h764l-31 -139h-928z" />
<glyph unicode="F" horiz-adv-x="1138" d="M205 0l327 1479h877l-31 -140h-712l-111 -495h528l-30 -139h-529l-155 -705h-164z" />
<glyph unicode="G" horiz-adv-x="1366" d="M242 312q-15 67 -15 149q0 123 35 278q42 190 117.5 336.5t173.5 238.5t212.5 138.5t242.5 46.5q197 0 309.5 -103.5t126.5 -330.5l-162 -31q-17 172 -90.5 249t-206.5 77q-68 0 -131.5 -18.5t-129 -64t-119.5 -115t-101.5 -177.5t-77.5 -246q-31 -140 -31 -250 q0 -105 23 -173q24 -69 69 -114.5t100.5 -64t123.5 -18.5q173 0 284 92t142 235l28 125h-334l31 140h498l-158 -711h-135l31 135h-4q-73 -76 -184 -115.5t-238 -39.5q-172 0 -281.5 81.5t-148.5 250.5z" />
<glyph unicode="H" horiz-adv-x="1478" d="M221 0l328 1479h164l-142 -635h709l141 635h164l-328 -1479h-163l155 705h-708l-156 -705h-164z" />
<glyph unicode="I" horiz-adv-x="681" d="M258 0l328 1479h164l-328 -1479h-164z" />
<glyph unicode="J" horiz-adv-x="909" d="M53 170l142 80q24 -59 74.5 -95t117.5 -36q179 0 229 219l252 1141h164l-244 -1098q-45 -206 -152 -303.5t-276 -97.5q-62 0 -111.5 15t-86 43.5t-61 59t-48.5 72.5z" />
<glyph unicode="K" horiz-adv-x="1366" d="M238 0l327 1479h164l-170 -768h4l783 768h194l-582 -557l310 -922h-187l-266 786l-303 -290l-111 -496h-163z" />
<glyph unicode="L" horiz-adv-x="1138" d="M221 0l328 1479h164l-297 -1340h700l-31 -139h-864z" />
<glyph unicode="M" horiz-adv-x="1705" d="M221 0l328 1479h254l112 -1196h5l634 1196h258l-327 -1479h-148l299 1352h-6l-712 -1352h-127l-117 1352h-6l-299 -1352h-148z" />
<glyph unicode="N" horiz-adv-x="1478" d="M221 0l328 1479h235l394 -1139h8l252 1139h147l-328 -1479h-135l-456 1319h-4l-293 -1319h-148z" />
<glyph unicode="O" horiz-adv-x="1366" d="M268 739q81 367 276.5 563.5t469.5 196.5q274 -1 382 -197q62 -112 62 -280q0 -126 -35 -283q-81 -367 -276 -563t-469 -196t-382 196q-62 112 -63 281q0 125 35 282zM432 739q-33 -150 -33 -263q0 -122 38 -202q73 -155 272 -155t341 155.5t210 464.5q33 150 33 263 q0 122 -38 202q-73 156 -272 156t-341 -156t-210 -465z" />
<glyph unicode="P" horiz-adv-x="1251" d="M205 0l327 1479h517q115 0 196.5 -32t121.5 -87q41 -56 53 -132q4 -27 4 -55q0 -52 -15 -108q-41 -191 -201 -298.5t-432 -107.5h-262l-145 -659h-164zM545 799h278q198 0 296 66.5t128 203.5q9 42 9 77q0 193 -275 193h-315z" />
<glyph unicode="Q" horiz-adv-x="1366" d="M268 739q81 367 276.5 563.5t469.5 196.5t382 -197q62 -112 62 -280q0 -126 -35 -283q-83 -370 -276 -563q23 -71 69 -103t123 -32l-34 -160q-68 0 -114.5 11.5t-78.5 38.5t-51.5 59.5t-40.5 85.5q-152 -96 -342 -96q-274 0 -382 196q-63 112 -63 281q0 125 35 282z M432 739q-33 -150 -33 -263q0 -122 38 -202q73 -155 272 -155q142 0 258 82q-25 57 -59.5 84.5t-94.5 36.5l35 157q99 -14 154.5 -48t87.5 -103q112 148 170 411q33 150 33 263q0 122 -38 202q-73 156 -272 156t-341 -156t-210 -465z" />
<glyph unicode="R" horiz-adv-x="1366" d="M205 0l327 1479h476q238 0 343 -102q76 -73 76 -190q0 -45 -12 -97q-65 -288 -381 -385l158 -705h-178l-150 672h-346l-149 -672h-164zM549 811h297q343 0 403 270q10 42 10 77q0 82 -53 123q-75 58 -245 58h-295z" />
<glyph unicode="S" horiz-adv-x="1251" d="M182 365l162 53q48 -299 322 -299q157 0 257.5 73.5t127.5 192.5q5 25 5 48q0 32 -10 61q-18 49 -58.5 82t-96.5 63t-119.5 53t-127 52.5t-118 60t-93.5 76t-54 101.5q-7 26 -7 58q0 36 9 78q36 162 184 271.5t344 109.5q175 0 282.5 -92t125.5 -272l-156 -33 q-3 113 -77 185.5t-210 72.5q-129 0 -215 -60t-112 -170q-5 -20 -5 -39q0 -29 12 -55q18 -42 59.5 -72t98 -58t120 -51.5t126.5 -53.5t117.5 -62.5t93.5 -80t54 -105.5q7 -27 7 -59q0 -37 -9 -80q-15 -67 -43.5 -127.5t-77.5 -117.5t-114 -98t-157.5 -66t-201.5 -25 q-93 0 -166.5 24t-119 60t-79.5 90.5t-50 102t-30 108.5z" />
<glyph unicode="T" horiz-adv-x="1138" d="M342 1339l31 140h1048l-30 -140h-443l-297 -1339h-164l297 1339h-442z" />
<glyph unicode="U" horiz-adv-x="1478" d="M319 446l230 1033h164l-232 -1045q-9 -40 -10 -75q-1 -86 53 -150q74 -90 241.5 -90t280.5 90t144 225l231 1045h164l-229 -1033q-49 -218 -218.5 -342t-402.5 -124t-349 124q-82 88 -82 221q0 57 15 121z" />
<glyph unicode="V" horiz-adv-x="1138" d="M365 1479h163l97 -1213h4l635 1213h166l-787 -1479h-149z" />
<glyph unicode="W" horiz-adv-x="1705" d="M385 1479h156l12 -1180h4l549 1180h145l33 -1180h4l533 1180h155l-678 -1479h-145l-39 1196h-4l-551 -1196h-145z" />
<glyph unicode="X" horiz-adv-x="1138" d="M29 0l614 772l-258 707h188l197 -543l432 543h189l-560 -707l279 -772h-188l-222 610l-483 -610h-188z" />
<glyph unicode="Y" horiz-adv-x="1138" d="M360 1479h181l207 -678l505 678h181l-646 -856l-137 -623h-164l138 623z" />
<glyph unicode="Z" horiz-adv-x="1138" d="M92 0l27 119l1011 1220h-673l30 140h879l-23 -107l-1028 -1233h762l-30 -139h-955z" />
<glyph unicode="[" horiz-adv-x="681" d="M123 -152l360 1631h418l-18 -86h-271l-323 -1459h270l-18 -86h-418z" />
<glyph unicode="\" horiz-adv-x="569" d="M315 1499h125l142 -1519h-123z" />
<glyph unicode="]" horiz-adv-x="681" d="M76 -152l18 86h271l323 1459h-270l18 86h418l-360 -1631h-418z" />
<glyph unicode="^" horiz-adv-x="1228" d="M223 571l660 908h118l259 -908h-130l-221 768l-555 -768h-131z" />
<glyph unicode="_" d="M-57 -256l22 102h1024l-22 -102h-1024z" />
<glyph unicode="`" horiz-adv-x="569" d="M340 1479h223l119 -291h-137z" />
<glyph unicode="a" d="M145 272q40 175 209.5 273.5t538.5 161.5l14 57q7 32 7 58q0 58 -33 90q-48 46 -150 46q-111 0 -189.5 -49.5t-119.5 -115.5l-115 67q77 100 192 162.5t257 62.5q71 0 130 -17t106 -55t63 -99q8 -30 8 -67t-8 -81l-119 -537q-27 -117 -27 -206v-23h-151l16 147 q-187 -167 -389 -167q-131 0 -201 76q-49 53 -48 136q0 37 9 80zM293 270q-3 -17 -3 -32q0 -49 34 -85q45 -47 110 -47q77 0 180 50.5t187 126.5l63 292q-522 -88 -571 -305z" />
<glyph unicode="b" horiz-adv-x="1138" d="M172 0q25 67 59 233l277 1246h147l-114 -516l10 4q167 118 305 118q57 0 109.5 -18t102 -57.5t78.5 -103.5q28 -66 37 -158q2 -22 2 -45q0 -76 -22 -171q-27 -123 -76.5 -220.5t-106.5 -158.5t-125 -101t-129.5 -56t-121.5 -16q-90 0 -155.5 34t-122.5 99l-52 -113h-102z M383 250q63 -78 116 -111t122 -33q140 0 244 109t149 309q23 112 23 191v13q-2 83 -34 134t-79.5 73.5t-114.5 22.5q-65 0 -145.5 -40t-155.5 -107z" />
<glyph unicode="c" d="M201 532q57 257 207 405t350 148q80 0 138.5 -21t95 -61.5t58 -89.5t33.5 -116l-147 -49q-9 100 -60.5 155t-144.5 55q-137 0 -238 -112t-145 -314q-22 -95 -22 -170q0 -85 28 -144q52 -112 189 -112q103 0 176 42.5t160 154.5l106 -53q-116 -145 -218.5 -207.5 t-252.5 -62.5q-201 0 -286 148q-51 88 -51 214q0 86 24 190z" />
<glyph unicode="d" horiz-adv-x="1138" d="M192 311q-2 21 -2 43q0 79 23 178q26 119 74.5 216t105.5 158t124 103t127.5 59t117.5 17q138 0 256 -118l6 -4l115 516h147l-276 -1246q-4 -19 -16 -72t-18.5 -89.5t-8.5 -71.5h-136l3 104q-50 -54 -133 -89t-175 -35q-60 0 -113.5 16.5t-104.5 55t-79.5 102 t-36.5 157.5zM358 524q-20 -88 -19 -159q0 -89 31 -150q57 -109 197 -109q69 0 135 32.5t164 111.5l125 561q-47 68 -108.5 107.5t-126.5 39.5q-139 0 -243 -102.5t-155 -331.5z" />
<glyph unicode="e" d="M184 282q-4 31 -3 66q0 82 20 184q57 256 207 404.5t348 148.5q85 0 150.5 -27.5t110.5 -86.5t55 -150q3 -24 2 -51q0 -74 -19 -168l-21 -98h-692q-14 -64 -14 -120q0 -96 41 -166q66 -112 200 -112q96 0 182 48t152 133l103 -60q-42 -53 -81 -91t-95 -76.5t-129 -59 t-160 -20.5q-92 0 -165.5 31.5t-126.5 99t-65 171.5zM373 631h540q14 62 14 114q1 72 -27 124q-48 89 -167 89q-130 0 -223 -87.5t-137 -239.5z" />
<glyph unicode="f" horiz-adv-x="681" d="M236 0l208 938h-180l27 127h180l27 121q28 124 73 193.5t104.5 94.5t151.5 25q27 0 129 -10l-28 -131q-10 1 -47 7.5t-56 6.5q-77 0 -114.5 -32t-57.5 -119l-35 -156h232l-27 -127h-231l-209 -938h-147z" />
<glyph unicode="g" d="M10 -135q18 75 71 122t159 95q-56 19 -84 61q-20 30 -20 63q0 13 3 27q7 33 22.5 59t44 49t51.5 37t67 38q-90 82 -90 208q0 42 10 89q38 166 175 269t310 103q162 0 250 -73q132 82 250 94l-33 -148q-106 0 -170 -28q13 -21 22 -51t12 -75q1 -8 1 -17q0 -36 -10 -74 q-35 -158 -172 -265.5t-299 -107.5q-87 0 -183 29q-90 -24 -106 -99q-7 -36 12 -56.5t59 -20.5q251 0 390 -32t186 -96q31 -42 31 -104q0 -31 -8 -67q-26 -124 -168.5 -205.5t-380.5 -81.5q-227 0 -329 63q-79 50 -79 140q0 26 6 55zM152 -188q9 -24 39 -41.5t98 -27 t176 -9.5q140 0 239 39t117 114q2 13 2 24q0 62 -66 95q-79 39 -270 39q-82 0 -146.5 -16.5t-102.5 -44t-58.5 -57t-27.5 -60.5q-5 -15 -5 -29t5 -26zM383 713q-6 -29 -6 -56q0 -70 44 -121q61 -69 183 -69q121 0 202.5 68.5t102.5 169.5q9 40 9 74q0 67 -36 112 q-53 67 -186 67q-122 0 -205.5 -68.5t-107.5 -176.5z" />
<glyph unicode="h" horiz-adv-x="1138" d="M182 0l328 1479h147l-122 -557h4q180 163 350 163q62 0 111 -16.5t86 -52.5q38 -36 48 -96q4 -23 4 -50q0 -43 -10 -96l-172 -774h-147l170 770q10 41 10 73q0 45 -21 71q-35 44 -120 44q-76 0 -172.5 -49t-169.5 -112l-176 -797h-148z" />
<glyph unicode="i" horiz-adv-x="569" d="M211 0l235 1065h148l-236 -1065h-147zM504 1323l39 176h147l-39 -176h-147z" />
<glyph unicode="j" horiz-adv-x="569" d="M-37 -369l27 121q36 -18 73 -18q64 0 96.5 23.5t45.5 82.5l270 1225h148l-273 -1235q-22 -98 -96 -160.5t-174 -62.5q-79 0 -117 24zM532 1323l39 176h148l-39 -176h-148z" />
<glyph unicode="k" d="M172 0l328 1479h147l-211 -953h4l549 539h178l-399 -393l205 -672h-174l-162 545l-246 -226l-72 -319h-147z" />
<glyph unicode="l" horiz-adv-x="569" d="M211 0l328 1479h147l-328 -1479h-147z" />
<glyph unicode="m" horiz-adv-x="1705" d="M168 0l235 1065h148l-31 -141l10 8q83 74 173.5 113.5t168.5 39.5q100 0 162 -45.5t74 -121.5q195 167 375 167q38 0 69.5 -5.5t63.5 -19.5t52.5 -37.5t35.5 -59.5q14 -33 13 -77q1 -4 1 -8q-2 -50 -14 -116l-168 -762h-147l167 762q9 42 9 74q1 47 -19 75 q-34 47 -110 47q-47 0 -92 -13t-90.5 -40.5t-75 -49.5t-76.5 -60l-176 -795h-148l168 762q9 41 9 73q0 48 -20 76q-34 47 -110 47q-47 0 -91.5 -13t-90.5 -41t-74.5 -49t-76.5 -60l-177 -795h-147z" />
<glyph unicode="n" horiz-adv-x="1138" d="M182 0l236 1065h147l-30 -143h4q180 163 350 163q62 0 111 -16.5t86 -52.5q38 -36 48 -96q4 -23 4 -50q0 -43 -10 -96l-172 -774h-147l170 770q10 41 10 73q0 45 -21 71q-35 44 -120 44q-76 0 -172.5 -49t-169.5 -112l-176 -797h-148z" />
<glyph unicode="o" d="M174 316q-2 21 -2 42q0 82 23 174q35 157 109 280t190.5 198t257.5 75q85 0 150.5 -28t105.5 -78q41 -49 61 -119q20 -68 19 -148q0 -84 -21 -180q-36 -157 -110.5 -279.5t-191 -197.5t-257.5 -75q-106 0 -181.5 43t-110 118t-42.5 175zM342 532q-21 -93 -21 -167 q0 -87 29 -147q53 -112 187 -112t236 111.5t147 314.5q20 93 20 166q0 88 -28 148q-52 112 -186.5 112t-237 -111.5t-146.5 -314.5z" />
<glyph unicode="p" horiz-adv-x="1138" d="M92 -393l324 1458h147l-26 -125h4q55 61 143 103t164 42q49 0 95 -11.5t91 -37.5t77 -68t54 -104q21 -57 21 -133v-11q-2 -82 -23 -188q-26 -119 -75 -216t-106.5 -158t-124.5 -102.5t-127.5 -58.5t-117.5 -17q-139 0 -254 118l-8 4l-110 -495h-148zM383 254 q47 -68 110 -108t128 -40q139 0 242.5 103t154.5 332q19 88 19 158q0 90 -31 151q-57 108 -197 108q-69 0 -136.5 -32.5t-164.5 -110.5z" />
<glyph unicode="q" horiz-adv-x="1138" d="M192 316q-2 20 -2 41q0 78 23 175q27 123 76 220.5t106 158.5t124.5 101.5t129 56.5t121.5 16q183 0 254 -133l51 113h119l-324 -1458h-147l111 495l-9 -4q-170 -118 -307 -118q-57 0 -109.5 17.5t-102 57.5t-78 104t-36.5 157zM339 337q2 -83 34 -134.5t79.5 -74 t114.5 -22.5q65 0 144.5 40t154.5 108l125 561q-63 79 -114.5 111t-120.5 32q-140 0 -245 -108.5t-149 -308.5q-23 -112 -23 -191v-13z" />
<glyph unicode="r" horiz-adv-x="681" d="M143 0l236 1065h147l-47 -211h4q93 117 183 172t215 55l-33 -147q-133 -3 -233 -87.5t-193 -256.5l-131 -590h-148z" />
<glyph unicode="s" horiz-adv-x="909" d="M90 182l135 88q36 -77 105 -120.5t166 -43.5q113 0 182.5 51.5t85.5 125.5q4 17 4 33q0 28 -12 50q-20 36 -60 56.5t-92 39.5t-107.5 34t-106 40t-86.5 56.5t-50 83.5q-6 23 -6 50q0 34 10 73q35 136 148 212q110 74 260 74h8q105 -2 196.5 -53.5t126.5 -132.5l-120 -90 q-47 78 -102.5 113.5t-139.5 35.5q-92 0 -152 -42.5t-75 -114.5q-3 -13 -3 -25q-1 -26 13 -47q20 -31 59.5 -49.5t90.5 -37t105.5 -34.5t104 -42t85 -60t49.5 -88q7 -26 7 -56q0 -33 -8 -71q-22 -99 -91 -171.5t-159 -106t-190 -33.5q-127 0 -228 52.5t-153 149.5z" />
<glyph unicode="t" horiz-adv-x="681" d="M246 156l174 782h-174l26 127h174l78 350h148l-78 -350h246l-27 -127h-246l-168 -758q-9 -37 16 -55.5t89 -18.5q58 0 133 11l-27 -121q-58 -16 -176 -16q-123 0 -167 38q-29 25 -29 77q0 27 8 61z" />
<glyph unicode="u" horiz-adv-x="1138" d="M240 146q-4 24 -4 51q0 42 10 94l172 774h147l-170 -770q-8 -39 -9 -69q0 -49 22 -76q36 -44 120 -44q76 0 171 49.5t169 112.5l176 797h148l-236 -1065h-147l33 143h-4q-184 -163 -353 -163q-62 0 -111 16.5t-86.5 53t-47.5 96.5z" />
<glyph unicode="v" horiz-adv-x="909" d="M268 1065h150l76 -881h4l465 881h149l-555 -1065h-197z" />
<glyph unicode="w" horiz-adv-x="1366" d="M268 1065h150l35 -819h4l389 819h149l31 -823h4l389 823h150l-520 -1065h-150l-31 823h-4l-393 -823h-149z" />
<glyph unicode="x" horiz-adv-x="909" d="M25 0l460 559l-200 506h166l149 -379l307 379h166l-409 -506l221 -559h-170l-170 436l-355 -436h-165z" />
<glyph unicode="y" horiz-adv-x="909" d="M-47 -381l27 121q60 -6 77 -6q32 0 60 4t67 19t72 41t70 74.5t67 115.5l-133 1077h156l106 -813h4l430 813h156l-631 -1159q-165 -299 -426 -299q-22 0 -39.5 2t-37.5 5.5t-25 4.5z" />
<glyph unicode="z" horiz-adv-x="909" d="M61 0l25 106l766 832h-524l26 127h725l-22 -107l-766 -831h586l-29 -127h-787z" />
<glyph unicode="{" horiz-adv-x="681" d="M236 621l18 86q63 0 105 41t59 118l90 408q24 107 84.5 166t155.5 59h126l-18 -86h-78q-94 0 -116 -115l-105 -471q-34 -139 -188 -161v-4q145 -23 114 -162l-104 -471q-25 -115 67 -115h78l-20 -86h-127q-95 0 -129 59t-10 166l90 408q17 77 -6 118.5t-86 41.5z" />
<glyph unicode="|" horiz-adv-x="899" d="M555 -578v2313h119v-2313h-119z" />
<glyph unicode="}" horiz-adv-x="681" d="M100 -172l21 86h78q91 0 116 115l105 471q31 139 188 162v4q-148 23 -114 161l104 471q22 115 -68 115h-77l18 86h127q95 0 130 -59t11 -166l-90 -408q-36 -159 90 -159l-18 -86q-126 0 -162 -160l-90 -408q-24 -107 -85.5 -166t-156.5 -59h-127z" />
<glyph unicode="~" horiz-adv-x="1228" d="M242 483q67 85 138.5 135t164.5 50q85 0 221 -70q5 -3 28.5 -14.5t30.5 -15t26 -12.5t28 -12t23.5 -8t25.5 -6.5t22 -1.5q38 0 80 25t66 49t67 72l60 -90q-43 -45 -68.5 -69t-66 -55t-82 -45t-86.5 -14q-38 0 -77 12t-58.5 22.5t-61.5 35.5q-38 22 -62.5 34.5t-66.5 24 t-86 11.5q-106 0 -207 -150z" />
<glyph unicode="&#xa1;" horiz-adv-x="681" d="M141 -414l269 1012h131l-183 -1012h-217zM428 840l49 225h201l-49 -225h-201z" />
<glyph unicode="&#xa2;" horiz-adv-x="1251" d="M231 -227l164 278q-169 140 -92 481q57 257 207 405t350 148q79 0 131 -18l105 182h116l-135 -231q83 -69 109 -221l-148 -49q-6 82 -43 131l-440 -756q38 -17 90 -17q103 0 176 42.5t160 154.5l106 -53q-116 -145 -218.5 -207.5t-252.5 -62.5q-82 0 -133 22l-135 -229 h-117zM451 532q-53 -238 24 -344l443 754q-37 16 -84 16q-137 0 -238 -112t-145 -314z" />
<glyph unicode="&#xa3;" horiz-adv-x="1251" d="M51 -20l35 159q95 16 186.5 112t122.5 234q25 128 27 187h-219l26 127h201q12 155 31 241q47 211 192.5 335t358.5 124q187 0 281.5 -98t97.5 -283l-146 -24q-4 41 -10 74t-23.5 73t-43 67t-71 45.5t-104.5 18.5q-69 0 -126.5 -17.5t-97 -46t-70 -68.5t-48 -80.5 t-28.5 -86.5q-21 -96 -41 -274h311l-27 -127h-295q0 -58 -18 -140q-35 -160 -119 -276q32 -18 85.5 -51t84.5 -51t74 -33t80 -15q139 0 227 66t145 197l125 -25q-139 -364 -489 -364q-43 0 -81 4t-74.5 15t-62 19.5t-60.5 27.5t-51.5 28.5t-54.5 33.5t-50 31 q-128 -139 -281 -159z" />
<glyph unicode="&#xa4;" horiz-adv-x="1251" d="M184 311l138 113q-47 79 -53.5 172t21.5 177t72 156t99 126l-88 112l106 86l88 -114q156 108 334 108q180 0 285 -108l141 114l66 -86l-138 -112q47 -80 53.5 -172.5t-21.5 -177t-72 -156t-99 -125.5l88 -113l-106 -86l-88 115q-157 -109 -334 -109q-179 0 -285 109 l-141 -115zM408 739q-39 -177 45.5 -283t248.5 -106t296 106t171 283q39 175 -46.5 282t-248.5 107t-295 -107t-171 -282z" />
<glyph unicode="&#xa5;" horiz-adv-x="1251" d="M299 479l29 127h362l2 17l-49 163h-276l28 127h209l-176 566h147l220 -711l534 711h148l-426 -566h209l-29 -127h-275l-125 -163l-2 -17h363l-29 -127h-362l-107 -479h-139l107 479h-363z" />
<glyph unicode="&#xa6;" horiz-adv-x="897" d="M555 -401v804h117v-804h-117zM555 752v809h117v-809h-117z" />
<glyph unicode="&#xa7;" d="M201 8l118 66q58 -135 179 -135q62 0 110.5 36.5t61.5 94.5q9 42 -17 104t-71 124.5t-98 135.5t-98.5 137t-71 130t-15.5 114q22 97 97.5 154t197.5 63q-8 15 -28 47.5t-26 45t-14.5 38t-7.5 50.5t8 57q22 94 111 161.5t203 67.5q91 0 149 -38.5t113 -131.5l-111 -55 q-1 1 -12.5 19t-18 26t-22 24t-30 24t-37.5 15t-48 7q-59 0 -102.5 -35.5t-54.5 -83.5q-6 -33 3.5 -61.5t45.5 -80t129 -170.5q133 -171 167.5 -246t14.5 -163q-21 -97 -95.5 -152.5t-176.5 -68.5q21 -32 34 -58t22 -57t8.5 -65t-9.5 -74q-22 -99 -112.5 -172.5 t-223.5 -73.5q-102 0 -173.5 49t-98.5 131zM437.5 781q0.5 -9 4.5 -21l6.5 -19.5t11 -22t13 -22t17 -25.5t19 -27t22.5 -31l24 -33q67 -92 104 -123t82 -31q49 0 91.5 32t54.5 83q9 43 -16 100t-101 154q-70 90 -104 114.5t-78 24.5q-51 0 -94 -33.5t-54 -79.5 q-2 -10 -2.5 -20.5t0 -19.5z" />
<glyph unicode="&#xa8;" horiz-adv-x="569" d="M301 1208l43 193h180l-43 -193h-180zM625 1208l43 193h180l-43 -193h-180z" />
<glyph unicode="&#xa9;" horiz-adv-x="1638" d="M199 493q-12 115 14 248q47 213 191.5 388t342.5 272.5t406 97.5q123 0 230.5 -37t187 -104.5t132 -161.5t64.5 -208.5t-14 -246.5q-28 -129 -94 -247.5t-158 -211t-202.5 -161t-234.5 -105t-247 -36.5q-124 0 -232.5 37t-188.5 104t-132.5 162t-64.5 210zM351.5 484.5 q23.5 -117.5 87.5 -202.5t169.5 -132.5t235.5 -47.5q172 0 332 81.5t275 228.5t155 329q32 136 7.5 252t-87 201t-167 133.5t-233.5 48.5q-174 0 -335.5 -82.5t-276.5 -228.5t-154 -324q-32 -139 -8.5 -256.5zM563 743q45 203 194 333t351 130q149 0 235 -82.5t76 -230.5 h-137q2 88 -52 139t-149 51q-141 0 -238 -93.5t-130 -244.5q-33 -146 26.5 -247t194.5 -101q96 0 173.5 55t109.5 146h139q-64 -149 -186.5 -236.5t-262.5 -87.5q-200 0 -294 133.5t-50 335.5z" />
<glyph unicode="&#xaa;" horiz-adv-x="614" d="M254 1012q23 105 133 167.5t340 100.5l4 27q12 48 -17 73t-91 25q-136 0 -197 -90l-72 49q111 135 289 135q63 0 111.5 -17.5t76 -62.5t11.5 -112l-70 -322q-20 -88 -14 -137h-109l4 72q-42 -25 -66.5 -38t-75 -29.5t-97.5 -16.5q-86 0 -132.5 46t-27.5 130zM362 1010 q-6 -34 16 -57t66 -23q52 0 115.5 26.5t108.5 61.5l37 168q-159 -29 -244 -70.5t-99 -105.5z" />
<glyph unicode="&#xab;" d="M283 532l338 324h143l-336 -324l193 -323h-140zM569 532l338 324h144l-336 -324l192 -323h-139z" />
<glyph unicode="&#xac;" horiz-adv-x="1228" d="M231 678l29 127h1065l-121 -545h-127l92 418h-938z" />
<glyph unicode="&#xad;" horiz-adv-x="681" d="M186 469l29 127h516l-29 -127h-516z" />
<glyph unicode="&#xae;" horiz-adv-x="1638" d="M199 493q-12 115 14 248q47 213 191.5 388t342.5 272.5t406 97.5q123 0 230.5 -37t187 -104.5t132 -161.5t64.5 -208.5t-14 -246.5q-28 -129 -94 -247.5t-158 -211t-202.5 -161t-234.5 -105t-247 -36.5q-124 0 -232.5 37t-188.5 104t-132.5 162t-64.5 210zM351.5 484.5 q23.5 -117.5 87.5 -202.5t169.5 -132.5t235.5 -47.5q172 0 332 81.5t275 228.5t155 329q32 136 7.5 252t-87 201t-167 133.5t-233.5 48.5q-174 0 -335.5 -82.5t-276.5 -228.5t-154 -324q-32 -139 -8.5 -256.5zM592 301l192 877h336q158 0 221.5 -61t34.5 -189 q-47 -214 -282 -242l166 -385h-148l-149 381h-152l-84 -381h-135zM836 793h159q120 0 176.5 34.5t71.5 108.5q14 67 -20 99t-144 32h-182z" />
<glyph unicode="&#xaf;" horiz-adv-x="569" d="M244 1253l26 123h639l-26 -123h-639z" />
<glyph unicode="&#xb0;" horiz-adv-x="819" d="M381 1204q28 123 132.5 209t227.5 86t190.5 -86t39.5 -209q-26 -123 -132 -209t-229 -86t-189 86t-40 209zM479 1204q-19 -87 25.5 -146t126.5 -59t152 59t89 146q20 87 -23.5 146t-125.5 59t-153 -59t-91 -146z" />
<glyph unicode="&#xb1;" horiz-adv-x="1228" d="M82 0l29 127h1065l-29 -127h-1065zM209 571l29 127h469l79 367h127l-79 -367h469l-29 -127h-469l-82 -366h-127l82 366h-469z" />
<glyph unicode="&#xb2;" horiz-adv-x="749" d="M190 598l25 111q53 70 123.5 130t134.5 97.5t130 76t116 69.5t87 74t48 93q15 66 -23.5 107t-125.5 41q-99 0 -170.5 -52t-110.5 -128l-88 32q56 109 157.5 179.5t239.5 70.5q130 0 195.5 -64t40.5 -173q-18 -80 -74 -145.5t-132 -113.5t-154.5 -90.5t-158.5 -97.5 t-126 -115h524l-23 -102h-635z" />
<glyph unicode="&#xb3;" horiz-adv-x="749" d="M193 758l96 65q70 -135 229 -135q102 0 168.5 41t81.5 111q21 93 -29.5 137.5t-191.5 44.5h-92l22 102h84q120 0 186 36t84 118q11 47 -28.5 83t-112.5 36q-83 0 -134 -23.5t-112 -81.5l-73 58q149 149 342 149q130 0 192 -58t37 -163q-16 -76 -64 -125.5t-112 -69.5v-4 q53 -18 83.5 -59.5t33.5 -86.5t-4 -91q-25 -115 -129 -185.5t-254 -70.5q-123 0 -198 53t-105 119z" />
<glyph unicode="&#xb4;" horiz-adv-x="569" d="M416 1188l246 291h223l-332 -291h-137z" />
<glyph unicode="&#xb5;" horiz-adv-x="1138" d="M94 -393l324 1458h147l-170 -770q-22 -101 13.5 -145t119.5 -44q76 0 171 49.5t169 112.5l176 797h148l-236 -1065h-147l33 143h-4q-184 -163 -353 -163q-90 0 -153 32l-90 -405h-148z" />
<glyph unicode="&#xb6;" d="M258 1071q44 198 188.5 303t362.5 105h567l-22 -103h-146l-344 -1548h-123l344 1548h-208l-345 -1548h-122l188 850q-183 0 -279.5 114.5t-60.5 278.5z" />
<glyph unicode="&#xb7;" horiz-adv-x="624" d="M301 530q12 55 56.5 92t99.5 37q53 0 81.5 -37.5t16.5 -91.5q-10 -52 -55.5 -88t-98.5 -36q-55 0 -83 35.5t-17 88.5z" />
<glyph unicode="&#xb8;" horiz-adv-x="569" d="M-33 -416l56 90q51 -39 127 -39q55 0 89.5 23.5t43.5 65.5q8 33 -11 55t-57 22q-52 0 -96 -16l-27 39l168 176h98l-122 -119l4 -4q30 10 63 10q85 0 118.5 -50.5t14.5 -121.5q-20 -84 -95 -129t-191 -45q-99 0 -183 43z" />
<glyph unicode="&#xb9;" horiz-adv-x="749" d="M307 598l23 102h155l154 697l-180 -27l16 68q159 41 195 61h110l-176 -799h162l-23 -102h-436z" />
<glyph unicode="&#xba;" horiz-adv-x="614" d="M283 1167q35 155 130.5 243.5t225.5 88.5q131 0 187.5 -88.5t21.5 -243.5q-34 -154 -129.5 -242.5t-226.5 -88.5q-130 0 -186.5 88.5t-22.5 242.5zM403 1171q-26 -116 2 -176.5t109 -60.5t136 61.5t79 171.5q25 111 -3 172.5t-108 61.5q-76 0 -134 -62t-81 -168z" />
<glyph unicode="&#xbb;" d="M211 209l336 323l-193 324h144l194 -324l-342 -323h-139zM498 209l336 323l-193 324h143l195 -324l-342 -323h-139z" />
<glyph unicode="&#xbc;" horiz-adv-x="1875" d="M332 598l22 102h156l154 697l-181 -27l17 68q157 40 194 61h111l-176 -799h162l-23 -102h-436zM444 -20l1235 1519h127l-1241 -1519h-121zM1122 209l21 92l508 588h157l-127 -578h166l-22 -102h-166l-47 -209h-111l47 209h-426zM1270 311h301l100 459h-4z" />
<glyph unicode="&#xbd;" horiz-adv-x="1875" d="M332 598l22 102h156l154 697l-181 -27l17 68q157 40 194 61h111l-176 -799h162l-23 -102h-436zM403 -20l1235 1519h127l-1241 -1519h-121zM1126 0l25 111q53 70 123.5 130t134.5 97.5t130 76t116 69.5t87 74t48 93q15 66 -24 107t-126 41q-99 0 -170 -52.5t-110 -128.5 l-88 33q58 109 159.5 179.5t239.5 70.5q130 0 194.5 -64t39.5 -173q-18 -80 -74 -145.5t-132 -113.5t-154.5 -90.5t-158.5 -97.5t-126 -115h524l-23 -102h-635z" />
<glyph unicode="&#xbe;" horiz-adv-x="1875" d="M266 758l96 65q70 -135 230 -135q102 0 168.5 41t81.5 111q21 93 -29.5 137.5t-191.5 44.5h-93l23 102h84q120 0 186 36t84 118q11 47 -28.5 83t-112.5 36q-83 0 -134 -23.5t-112 -81.5l-74 58q149 149 342 149q130 0 192 -58t38 -163q-16 -76 -64 -125.5t-112 -69.5v-4 q53 -18 83 -59.5t33 -86.5t-4 -91q-25 -115 -129 -185.5t-254 -70.5q-123 0 -198 53t-105 119zM477 -20l1235 1519h127l-1241 -1519h-121zM1122 209l21 92l508 588h157l-127 -578h166l-22 -102h-166l-47 -209h-111l47 209h-426zM1270 311h301l100 459h-4z" />
<glyph unicode="&#xbf;" horiz-adv-x="909" d="M109 -123q14 62 51 121.5t82.5 104t98 93t97.5 89.5t80.5 93.5t46.5 104.5l27 115h139l-24 -113q-16 -72 -53.5 -136t-81.5 -107.5t-94 -89.5t-92.5 -84.5t-77 -90.5t-46.5 -108q-15 -70 16.5 -123t116.5 -53q71 0 129 36.5t121 120.5l109 -59q-75 -110 -173.5 -167.5 t-209.5 -57.5q-137 0 -215.5 83.5t-46.5 227.5zM618 840l50 225h200l-49 -225h-201z" />
<glyph unicode="&#xc0;" horiz-adv-x="1251" d="M49 0l782 1479h244l127 -1479h-172l-37 463h-530l-242 -463h-172zM535 602h448l-43 762h-22zM764 1847h223l117 -291h-137z" />
<glyph unicode="&#xc1;" horiz-adv-x="1251" d="M49 0l782 1479h244l127 -1479h-172l-37 463h-530l-242 -463h-172zM535 602h448l-43 762h-22zM838 1556l247 291h224l-334 -291h-137z" />
<glyph unicode="&#xc2;" horiz-adv-x="1251" d="M49 0l782 1479h244l127 -1479h-172l-37 463h-530l-242 -463h-172zM535 602h448l-43 762h-22zM672 1556l266 291h192l140 -291h-164l-94 193l-176 -193h-164z" />
<glyph unicode="&#xc3;" horiz-adv-x="1251" d="M49 0l782 1479h244l127 -1479h-172l-37 463h-530l-242 -463h-172zM535 602h448l-43 762h-22zM625 1575q33 98 103 160.5t167 62.5q57 0 141 -37q80 -39 123 -39q38 0 70 25t47 65h102q-27 -82 -98.5 -150.5t-149.5 -68.5q-52 0 -148 39t-146 39q-32 0 -66 -30.5 t-43 -65.5h-102z" />
<glyph unicode="&#xc4;" horiz-adv-x="1251" d="M49 0l782 1479h244l127 -1479h-172l-37 463h-530l-242 -463h-172zM535 602h448l-43 762h-22zM725 1577l43 192h180l-43 -192h-180zM1049 1577l43 192h180l-43 -192h-180z" />
<glyph unicode="&#xc5;" horiz-adv-x="1251" d="M49 0l782 1479h244l127 -1479h-172l-37 463h-530l-242 -463h-172zM535 602h448l-43 762h-22zM813 1761q19 85 92 145t158 60t132 -60t28 -145q-20 -85 -93.5 -145t-158.5 -60t-131.5 60t-26.5 145zM903 1761q-11 -47 15 -80.5t73 -33.5q48 0 90 33.5t52 80.5t-17 81 t-74 34t-87.5 -34t-51.5 -81z" />
<glyph unicode="&#xc6;" horiz-adv-x="2048" d="M33 0l1161 1479h1038l-30 -140h-723l-111 -495h514l-31 -139h-514l-125 -566h764l-30 -139h-928l102 463h-545l-356 -463h-186zM686 602h465l170 762h-45z" />
<glyph unicode="&#xc7;" horiz-adv-x="1251" d="M250 739q79 360 272.5 560t460.5 200q201 0 301 -111t105 -319l-162 -45q-6 168 -72 252t-223 84q-169 0 -309.5 -158t-208.5 -463q-68 -311 8 -465.5t268 -154.5q82 0 151 28.5t122 81.5t91 110t74 132l142 -29q-200 -433 -570 -460l-104 -101l4 -4q30 10 64 10 q85 0 118.5 -50.5t14.5 -121.5q-20 -84 -95.5 -129t-191.5 -45q-98 0 -182 43l55 90q51 -39 127 -39q55 0 89.5 23.5t43.5 65.5q8 33 -11 55t-57 22q-52 0 -96 -16l-26 39l149 158q-236 16 -333.5 207t-18.5 550z" />
<glyph unicode="&#xc8;" horiz-adv-x="1251" d="M221 0l328 1479h887l-31 -140h-723l-111 -495h514l-30 -139h-514l-125 -566h764l-31 -139h-928zM821 1847h223l117 -291h-137z" />
<glyph unicode="&#xc9;" horiz-adv-x="1251" d="M221 0l328 1479h887l-31 -140h-723l-111 -495h514l-30 -139h-514l-125 -566h764l-31 -139h-928zM895 1556l248 291h223l-334 -291h-137z" />
<glyph unicode="&#xca;" horiz-adv-x="1251" d="M221 0l328 1479h887l-31 -140h-723l-111 -495h514l-30 -139h-514l-125 -566h764l-31 -139h-928zM729 1556l266 291h193l139 -291h-164l-94 193l-176 -193h-164z" />
<glyph unicode="&#xcb;" horiz-adv-x="1251" d="M221 0l328 1479h887l-31 -140h-723l-111 -495h514l-30 -139h-514l-125 -566h764l-31 -139h-928zM782 1577l43 192h181l-43 -192h-181zM1106 1577l43 192h180l-43 -192h-180z" />
<glyph unicode="&#xcc;" horiz-adv-x="681" d="M258 0l328 1479h164l-328 -1479h-164zM479 1847h223l117 -291h-137z" />
<glyph unicode="&#xcd;" horiz-adv-x="681" d="M258 0l328 1479h164l-328 -1479h-164zM553 1556l248 291h223l-334 -291h-137z" />
<glyph unicode="&#xce;" horiz-adv-x="681" d="M258 0l328 1479h164l-328 -1479h-164zM387 1556l266 291h193l139 -291h-164l-94 193l-176 -193h-164z" />
<glyph unicode="&#xcf;" horiz-adv-x="681" d="M258 0l328 1479h164l-328 -1479h-164zM440 1577l43 192h181l-43 -192h-181zM764 1577l43 192h180l-43 -192h-180z" />
<glyph unicode="&#xd0;" horiz-adv-x="1366" d="M205 0l155 705h-139l31 139h139l141 635h398q308 0 446 -192t58 -548q-36 -163 -110 -298.5t-179.5 -233.5t-246.5 -152.5t-304 -54.5h-389zM399 139h222q255 0 419 151.5t230 448.5q33 162 24.5 276t-62.5 186t-137 105t-200 33h-229l-111 -495h385l-31 -139h-385z" />
<glyph unicode="&#xd1;" horiz-adv-x="1478" d="M221 0l328 1479h235l394 -1139h8l252 1139h147l-328 -1479h-135l-456 1319h-4l-293 -1319h-148zM737 1575q33 98 103.5 160.5t167.5 62.5q57 0 141 -37q80 -39 123 -39q38 0 70 25t47 65h102q-27 -82 -98.5 -150.5t-149.5 -68.5q-52 0 -148.5 39t-146.5 39 q-32 0 -65.5 -30.5t-42.5 -65.5h-103z" />
<glyph unicode="&#xd2;" horiz-adv-x="1366" d="M268 739q81 367 276.5 563.5t469.5 196.5t382 -196.5t27 -563.5t-276 -563t-469 -196t-382.5 196t-27.5 563zM432 739q-68 -310 5 -465t272 -155t341 155.5t210 464.5q68 310 -5 465.5t-272 155.5t-341 -156t-210 -465zM821 1847h223l117 -291h-137z" />
<glyph unicode="&#xd3;" horiz-adv-x="1366" d="M268 739q81 367 276.5 563.5t469.5 196.5t382 -196.5t27 -563.5t-276 -563t-469 -196t-382.5 196t-27.5 563zM432 739q-68 -310 5 -465t272 -155t341 155.5t210 464.5q68 310 -5 465.5t-272 155.5t-341 -156t-210 -465zM895 1556l248 291h223l-334 -291h-137z" />
<glyph unicode="&#xd4;" horiz-adv-x="1366" d="M268 739q81 367 276.5 563.5t469.5 196.5t382 -196.5t27 -563.5t-276 -563t-469 -196t-382.5 196t-27.5 563zM432 739q-68 -310 5 -465t272 -155t341 155.5t210 464.5q68 310 -5 465.5t-272 155.5t-341 -156t-210 -465zM729 1556l266 291h193l139 -291h-164l-94 193 l-176 -193h-164z" />
<glyph unicode="&#xd5;" horiz-adv-x="1366" d="M268 739q81 367 276.5 563.5t469.5 196.5t382 -196.5t27 -563.5t-276 -563t-469 -196t-382.5 196t-27.5 563zM432 739q-68 -310 5 -465t272 -155t341 155.5t210 464.5q68 310 -5 465.5t-272 155.5t-341 -156t-210 -465zM682 1575q33 98 103 160.5t167 62.5q58 0 142 -37 q80 -39 123 -39q38 0 69.5 25t46.5 65h103q-27 -82 -98.5 -150.5t-149.5 -68.5q-53 0 -149 39t-146 39q-32 0 -66 -30.5t-43 -65.5h-102z" />
<glyph unicode="&#xd6;" horiz-adv-x="1366" d="M268 739q81 367 276.5 563.5t469.5 196.5t382 -196.5t27 -563.5t-276 -563t-469 -196t-382.5 196t-27.5 563zM432 739q-68 -310 5 -465t272 -155t341 155.5t210 464.5q68 310 -5 465.5t-272 155.5t-341 -156t-210 -465zM782 1577l43 192h181l-43 -192h-181zM1106 1577 l43 192h180l-43 -192h-180z" />
<glyph unicode="&#xd7;" horiz-adv-x="1228" d="M102 90l541 442l-344 443l109 90l344 -447l540 447l72 -90l-541 -443l344 -442l-110 -90l-344 442l-541 -442z" />
<glyph unicode="&#xd8;" horiz-adv-x="1366" d="M37 -131l260 305q-111 199 -29 565q81 367 276.5 563.5t469.5 196.5q204 0 313 -106l156 184h143l-231 -270q110 -194 28 -568q-81 -367 -276 -563t-469 -196q-203 0 -316 110l-188 -221h-137zM422 324l797 940q-78 96 -236 96q-199 0 -341 -156t-210 -465 q-58 -264 -10 -415zM473 219q69 -100 236 -100q199 0 341 155.5t210 464.5q61 266 10 420z" />
<glyph unicode="&#xd9;" horiz-adv-x="1478" d="M319 446l230 1033h164l-232 -1045q-31 -135 43.5 -225t241.5 -90t280 90t144 225l231 1045h164l-229 -1033q-49 -218 -218.5 -342t-402.5 -124t-349 124.5t-67 341.5zM877 1847h223l117 -291h-138z" />
<glyph unicode="&#xda;" horiz-adv-x="1478" d="M319 446l230 1033h164l-232 -1045q-31 -135 43.5 -225t241.5 -90t280 90t144 225l231 1045h164l-229 -1033q-49 -218 -218.5 -342t-402.5 -124t-349 124.5t-67 341.5zM950 1556l248 291h223l-334 -291h-137z" />
<glyph unicode="&#xdb;" horiz-adv-x="1478" d="M319 446l230 1033h164l-232 -1045q-31 -135 43.5 -225t241.5 -90t280 90t144 225l231 1045h164l-229 -1033q-49 -218 -218.5 -342t-402.5 -124t-349 124.5t-67 341.5zM784 1556l267 291h192l139 -291h-163l-95 193l-176 -193h-164z" />
<glyph unicode="&#xdc;" horiz-adv-x="1478" d="M319 446l230 1033h164l-232 -1045q-31 -135 43.5 -225t241.5 -90t280 90t144 225l231 1045h164l-229 -1033q-49 -218 -218.5 -342t-402.5 -124t-349 124.5t-67 341.5zM838 1577l43 192h180l-43 -192h-180zM1161 1577l43 192h180l-43 -192h-180z" />
<glyph unicode="&#xdd;" horiz-adv-x="1138" d="M360 1479h181l207 -678l505 678h181l-646 -856l-137 -623h-164l138 623zM780 1556l248 291h223l-333 -291h-138z" />
<glyph unicode="&#xde;" horiz-adv-x="1251" d="M205 0l327 1479h164l-63 -287h352q92 0 163.5 -20.5t115 -58t69 -89t26.5 -114t-13 -132.5q-41 -190 -201 -297.5t-432 -107.5h-262l-82 -373h-164zM481 512h279q198 0 296 66.5t128 203.5q60 271 -266 271h-316z" />
<glyph unicode="&#xdf;" horiz-adv-x="1138" d="M193 0l251 1135q27 125 102 209.5t166 119.5t193 35q179 0 254.5 -98.5t40.5 -257.5q-24 -106 -88 -185.5t-164 -123.5v-5q130 -40 172 -151.5t4 -276.5q-21 -98 -68 -179t-107 -133t-128.5 -80.5t-136.5 -28.5q-126 0 -203 55l82 121q18 -20 53.5 -35t83.5 -15 q105 0 176 79.5t99 205.5q42 193 -34 278t-255 85l27 127h59q91 0 172.5 71t104.5 178q27 116 -16.5 179t-158.5 63q-117 0 -185.5 -67.5t-104.5 -206.5l-244 -1098h-147z" />
<glyph unicode="&#xe0;" d="M145 272q40 175 209.5 273.5t538.5 161.5l14 57q22 101 -26 147.5t-150 46.5q-111 0 -189.5 -49.5t-119.5 -115.5l-115 67q77 100 192 162.5t257 62.5q71 0 130 -17t106 -55t63 -99t0 -148l-119 -537q-31 -132 -27 -229h-151l16 147q-187 -167 -389 -167 q-130 0 -200.5 76t-39.5 216zM293 270q-14 -70 31 -117t110 -47q77 0 180 50.5t187 126.5l63 292q-522 -88 -571 -305zM557 1479h223l119 -291h-137z" />
<glyph unicode="&#xe1;" d="M145 272q40 175 209.5 273.5t538.5 161.5l14 57q22 101 -26 147.5t-150 46.5q-111 0 -189.5 -49.5t-119.5 -115.5l-115 67q77 100 192 162.5t257 62.5q71 0 130 -17t106 -55t63 -99t0 -148l-119 -537q-31 -132 -27 -229h-151l16 147q-187 -167 -389 -167 q-130 0 -200.5 76t-39.5 216zM293 270q-14 -70 31 -117t110 -47q77 0 180 50.5t187 126.5l63 292q-522 -88 -571 -305zM633 1188l246 291h223l-332 -291h-137z" />
<glyph unicode="&#xe2;" d="M145 272q40 175 209.5 273.5t538.5 161.5l14 57q22 101 -26 147.5t-150 46.5q-111 0 -189.5 -49.5t-119.5 -115.5l-115 67q77 100 192 162.5t257 62.5q71 0 130 -17t106 -55t63 -99t0 -148l-119 -537q-31 -132 -27 -229h-151l16 147q-187 -167 -389 -167 q-130 0 -200.5 76t-39.5 216zM293 270q-14 -70 31 -117t110 -47q77 0 180 50.5t187 126.5l63 292q-522 -88 -571 -305zM467 1188l264 291h193l141 -291h-164l-96 192l-174 -192h-164z" />
<glyph unicode="&#xe3;" d="M145 272q40 175 209.5 273.5t538.5 161.5l14 57q22 101 -26 147.5t-150 46.5q-111 0 -189.5 -49.5t-119.5 -115.5l-115 67q77 100 192 162.5t257 62.5q71 0 130 -17t106 -55t63 -99t0 -148l-119 -537q-31 -132 -27 -229h-151l16 147q-187 -167 -389 -167 q-130 0 -200.5 76t-39.5 216zM293 270q-14 -70 31 -117t110 -47q77 0 180 50.5t187 126.5l63 292q-522 -88 -571 -305zM420 1206q31 98 101 161t167 63q57 0 141 -37q84 -39 125 -39q38 0 69.5 25t45.5 65h102q-27 -83 -97 -151t-148 -68q-53 0 -150 39t-147 39 q-32 0 -65.5 -31.5t-41.5 -65.5h-102z" />
<glyph unicode="&#xe4;" d="M145 272q40 175 209.5 273.5t538.5 161.5l14 57q22 101 -26 147.5t-150 46.5q-111 0 -189.5 -49.5t-119.5 -115.5l-115 67q77 100 192 162.5t257 62.5q71 0 130 -17t106 -55t63 -99t0 -148l-119 -537q-31 -132 -27 -229h-151l16 147q-187 -167 -389 -167 q-130 0 -200.5 76t-39.5 216zM293 270q-14 -70 31 -117t110 -47q77 0 180 50.5t187 126.5l63 292q-522 -88 -571 -305zM518 1208l43 193h180l-43 -193h-180zM842 1208l43 193h180l-43 -193h-180z" />
<glyph unicode="&#xe5;" d="M145 272q40 175 209.5 273.5t538.5 161.5l14 57q22 101 -26 147.5t-150 46.5q-111 0 -189.5 -49.5t-119.5 -115.5l-115 67q77 100 192 162.5t257 62.5q71 0 130 -17t106 -55t63 -99t0 -148l-119 -537q-31 -132 -27 -229h-151l16 147q-187 -167 -389 -167 q-130 0 -200.5 76t-39.5 216zM293 270q-14 -70 31 -117t110 -47q77 0 180 50.5t187 126.5l63 292q-522 -88 -571 -305zM606 1393q19 85 92 144.5t158 59.5t132 -59.5t28 -144.5t-92 -145t-158 -60t-132 60t-28 145zM696 1393q-11 -47 15 -81t73 -34t89.5 34t52.5 81 t-16.5 80.5t-73.5 33.5t-88.5 -33.5t-51.5 -80.5z" />
<glyph unicode="&#xe6;" horiz-adv-x="1593" d="M125 135.5q-14 52.5 0 114.5q15 67 46 123t70 97.5t94.5 76t109.5 58t126 43.5t133 33t140 26l14 57q22 96 -18.5 145t-139.5 49q-106 0 -183 -49.5t-118 -115.5l-110 67q72 99 185 162t245 63q216 0 276 -143q147 143 338 143q82 0 146 -27.5t108 -86.5t53.5 -150 t-16.5 -219l-20 -98h-656q-42 -189 11 -293.5t204 -104.5q79 0 162 48.5t148 132.5l102 -60q-42 -53 -81 -91t-94 -76.5t-125.5 -59t-152.5 -20.5q-54 0 -96.5 7t-85.5 25.5t-77 55.5t-58 92q-132 -107 -232.5 -143.5t-216.5 -36.5q-53 0 -100.5 18.5t-82 51.5t-48.5 85.5z M276 270q-15 -71 26.5 -117.5t111.5 -46.5q95 0 191.5 53.5t144.5 114.5l65 301q-63 -12 -114.5 -24.5t-113 -31.5t-109.5 -42.5t-91.5 -53t-72 -69t-38.5 -84.5zM975 631h508q34 149 -16 238t-169 89q-124 0 -204.5 -86t-118.5 -241z" />
<glyph unicode="&#xe7;" d="M195 -416l55 90q51 -39 127 -39q55 0 89.5 23.5t43.5 65.5q8 33 -11 55t-57 22q-52 0 -96 -16l-27 39l150 158q-179 17 -250.5 162.5t-17.5 387.5q57 257 207 405t350 148q80 0 138.5 -21t95 -61.5t58 -89.5t33.5 -116l-147 -49q-9 100 -60.5 155t-144.5 55 q-137 0 -238 -112t-145 -314q-46 -202 6 -314t189 -112q103 0 176 42.5t160 154.5l106 -53q-107 -133 -199.5 -195.5t-218.5 -72.5l-104 -101l4 -4q30 10 63 10q85 0 119 -50.5t15 -121.5q-20 -84 -95.5 -129t-191.5 -45q-98 0 -182 43z" />
<glyph unicode="&#xe8;" d="M184.5 281.5q-12.5 104.5 16.5 250.5q57 256 207 404.5t348 148.5q85 0 150.5 -27.5t110.5 -86.5t54.5 -150t-16.5 -219l-21 -98h-692q-39 -173 27 -285.5t200 -112.5q96 0 182 48t152 133l103 -60q-42 -53 -81 -91t-95 -76.5t-129 -59t-160 -20.5q-92 0 -165.5 31.5 t-126 98.5t-65 171.5zM373 631h540q34 149 -13.5 238t-166.5 89q-130 0 -223 -87.5t-137 -239.5zM567 1479h224l118 -291h-137z" />
<glyph unicode="&#xe9;" d="M184.5 281.5q-12.5 104.5 16.5 250.5q57 256 207 404.5t348 148.5q85 0 150.5 -27.5t110.5 -86.5t54.5 -150t-16.5 -219l-21 -98h-692q-39 -173 27 -285.5t200 -112.5q96 0 182 48t152 133l103 -60q-42 -53 -81 -91t-95 -76.5t-129 -59t-160 -20.5q-92 0 -165.5 31.5 t-126 98.5t-65 171.5zM373 631h540q34 149 -13.5 238t-166.5 89q-130 0 -223 -87.5t-137 -239.5zM643 1188l246 291h223l-332 -291h-137z" />
<glyph unicode="&#xea;" d="M184.5 281.5q-12.5 104.5 16.5 250.5q57 256 207 404.5t348 148.5q85 0 150.5 -27.5t110.5 -86.5t54.5 -150t-16.5 -219l-21 -98h-692q-39 -173 27 -285.5t200 -112.5q96 0 182 48t152 133l103 -60q-42 -53 -81 -91t-95 -76.5t-129 -59t-160 -20.5q-92 0 -165.5 31.5 t-126 98.5t-65 171.5zM373 631h540q34 149 -13.5 238t-166.5 89q-130 0 -223 -87.5t-137 -239.5zM477 1188l264 291h193l141 -291h-164l-96 192l-174 -192h-164z" />
<glyph unicode="&#xeb;" d="M184.5 281.5q-12.5 104.5 16.5 250.5q57 256 207 404.5t348 148.5q85 0 150.5 -27.5t110.5 -86.5t54.5 -150t-16.5 -219l-21 -98h-692q-39 -173 27 -285.5t200 -112.5q96 0 182 48t152 133l103 -60q-42 -53 -81 -91t-95 -76.5t-129 -59t-160 -20.5q-92 0 -165.5 31.5 t-126 98.5t-65 171.5zM373 631h540q34 149 -13.5 238t-166.5 89q-130 0 -223 -87.5t-137 -239.5zM528 1208l43 193h181l-43 -193h-181zM852 1208l43 193h180l-43 -193h-180z" />
<glyph unicode="&#xec;" horiz-adv-x="569" d="M211 0l235 1065h148l-236 -1065h-147zM340 1479h223l119 -291h-137z" />
<glyph unicode="&#xed;" horiz-adv-x="569" d="M211 0l235 1065h148l-236 -1065h-147zM416 1188l246 291h223l-332 -291h-137z" />
<glyph unicode="&#xee;" horiz-adv-x="569" d="M211 0l235 1065h148l-236 -1065h-147zM250 1188l264 291h193l141 -291h-164l-96 192l-174 -192h-164z" />
<glyph unicode="&#xef;" horiz-adv-x="569" d="M211 0l235 1065h148l-236 -1065h-147zM301 1208l43 193h180l-43 -193h-180zM625 1208l43 193h180l-43 -193h-180z" />
<glyph unicode="&#xf0;" d="M188 504q53 237 195 376.5t354 139.5q56 0 146 -29q-20 88 -88 189l-244 -119l-49 98l233 113q-80 100 -155 158l139 49q78 -56 143 -140l252 123l39 -102l-223 -113q64 -99 103.5 -213.5t50.5 -245t-19 -260.5q-54 -248 -199.5 -398t-357.5 -150q-213 0 -294 141 t-26 383zM336 504q-42 -186 8 -292t193 -106q142 0 237.5 105.5t138.5 292.5q40 181 -10 285t-192 104t-239 -104.5t-136 -284.5z" />
<glyph unicode="&#xf1;" horiz-adv-x="1138" d="M182 0l236 1065h147l-30 -143h4q180 163 350 163q62 0 111 -16.5t86.5 -53t47.5 -96t-6 -145.5l-172 -774h-147l170 770q24 101 -11 144.5t-120 43.5q-76 0 -172.5 -49t-169.5 -112l-176 -797h-148zM487 1206q31 98 101.5 161t167.5 63q57 0 141 -37q84 -39 125 -39 q38 0 69.5 25t45.5 65h102q-27 -82 -97.5 -150.5t-148.5 -68.5q-53 0 -150 39t-147 39q-32 0 -65 -31.5t-41 -65.5h-103z" />
<glyph unicode="&#xf2;" d="M173.5 316.5q-7.5 100.5 21.5 215.5q35 157 109 280t190.5 198t257.5 75q85 0 150.5 -28t106 -78t60.5 -119.5t19.5 -152t-21.5 -175.5q-36 -157 -110.5 -279.5t-191 -197.5t-257.5 -75q-106 0 -181.5 43t-110.5 118t-42.5 175.5zM342 532q-45 -203 8 -314.5t187 -111.5 t236 111.5t147 314.5q44 203 -8.5 314.5t-186.5 111.5t-236.5 -111.5t-146.5 -314.5zM567 1479h224l118 -291h-137z" />
<glyph unicode="&#xf3;" d="M173.5 316.5q-7.5 100.5 21.5 215.5q35 157 109 280t190.5 198t257.5 75q85 0 150.5 -28t106 -78t60.5 -119.5t19.5 -152t-21.5 -175.5q-36 -157 -110.5 -279.5t-191 -197.5t-257.5 -75q-106 0 -181.5 43t-110.5 118t-42.5 175.5zM342 532q-45 -203 8 -314.5t187 -111.5 t236 111.5t147 314.5q44 203 -8.5 314.5t-186.5 111.5t-236.5 -111.5t-146.5 -314.5zM643 1188l246 291h223l-332 -291h-137z" />
<glyph unicode="&#xf4;" d="M173.5 316.5q-7.5 100.5 21.5 215.5q35 157 109 280t190.5 198t257.5 75q85 0 150.5 -28t106 -78t60.5 -119.5t19.5 -152t-21.5 -175.5q-36 -157 -110.5 -279.5t-191 -197.5t-257.5 -75q-106 0 -181.5 43t-110.5 118t-42.5 175.5zM342 532q-45 -203 8 -314.5t187 -111.5 t236 111.5t147 314.5q44 203 -8.5 314.5t-186.5 111.5t-236.5 -111.5t-146.5 -314.5zM477 1188l264 291h193l141 -291h-164l-96 192l-174 -192h-164z" />
<glyph unicode="&#xf5;" d="M173.5 316.5q-7.5 100.5 21.5 215.5q35 157 109 280t190.5 198t257.5 75q85 0 150.5 -28t106 -78t60.5 -119.5t19.5 -152t-21.5 -175.5q-36 -157 -110.5 -279.5t-191 -197.5t-257.5 -75q-106 0 -181.5 43t-110.5 118t-42.5 175.5zM342 532q-45 -203 8 -314.5t187 -111.5 t236 111.5t147 314.5q44 203 -8.5 314.5t-186.5 111.5t-236.5 -111.5t-146.5 -314.5zM430 1206q31 98 101 161t167 63q58 0 142 -37q84 -39 125 -39q38 0 69 25t45 65h103q-27 -82 -97.5 -150.5t-148.5 -68.5q-53 0 -150 39t-147 39q-32 0 -65.5 -31.5t-41.5 -65.5h-102z " />
<glyph unicode="&#xf6;" d="M173.5 316.5q-7.5 100.5 21.5 215.5q35 157 109 280t190.5 198t257.5 75q85 0 150.5 -28t106 -78t60.5 -119.5t19.5 -152t-21.5 -175.5q-36 -157 -110.5 -279.5t-191 -197.5t-257.5 -75q-106 0 -181.5 43t-110.5 118t-42.5 175.5zM342 532q-45 -203 8 -314.5t187 -111.5 t236 111.5t147 314.5q44 203 -8.5 314.5t-186.5 111.5t-236.5 -111.5t-146.5 -314.5zM528 1208l43 193h181l-43 -193h-181zM852 1208l43 193h180l-43 -193h-180z" />
<glyph unicode="&#xf7;" horiz-adv-x="1228" d="M186 469l29 127h1065l-29 -127h-1065zM512 106q10 52 55.5 89.5t98.5 37.5q52 0 81.5 -37t18.5 -90q-12 -52 -57.5 -89t-98.5 -37t-81.5 37t-16.5 89zM700 958q10 52 55.5 89.5t98.5 37.5q52 0 81.5 -37t18.5 -90q-12 -53 -57.5 -90t-97.5 -37q-53 0 -82 37.5t-17 89.5z " />
<glyph unicode="&#xf8;" d="M-4 -168l233 289q-93 150 -34 411q35 157 109 280t190.5 198t257.5 75q131 0 209 -63l169 211h134l-232 -287q93 -153 35 -414q-36 -157 -110.5 -279.5t-191 -197.5t-257.5 -75q-137 0 -209 63l-172 -211h-131zM336 254l530 653q-51 51 -141 51q-134 0 -236.5 -111.5 t-146.5 -314.5q-39 -167 -6 -278zM391 158q52 -52 146 -52q134 0 236 111.5t147 314.5q36 169 4 279z" />
<glyph unicode="&#xf9;" horiz-adv-x="1138" d="M240.5 145.5q-10.5 59.5 5.5 145.5l172 774h147l-170 -770q-22 -101 13.5 -145t119.5 -44q76 0 171 49.5t169 112.5l176 797h148l-236 -1065h-147l33 143h-4q-184 -163 -353 -163q-62 0 -111 16.5t-86 53t-47.5 96zM625 1479h223l119 -291h-138z" />
<glyph unicode="&#xfa;" horiz-adv-x="1138" d="M240.5 145.5q-10.5 59.5 5.5 145.5l172 774h147l-170 -770q-22 -101 13.5 -145t119.5 -44q76 0 171 49.5t169 112.5l176 797h148l-236 -1065h-147l33 143h-4q-184 -163 -353 -163q-62 0 -111 16.5t-86 53t-47.5 96zM700 1188l246 291h223l-331 -291h-138z" />
<glyph unicode="&#xfb;" horiz-adv-x="1138" d="M240.5 145.5q-10.5 59.5 5.5 145.5l172 774h147l-170 -770q-22 -101 13.5 -145t119.5 -44q76 0 171 49.5t169 112.5l176 797h148l-236 -1065h-147l33 143h-4q-184 -163 -353 -163q-62 0 -111 16.5t-86 53t-47.5 96zM535 1188l264 291h192l142 -291h-164l-97 192 l-174 -192h-163z" />
<glyph unicode="&#xfc;" horiz-adv-x="1138" d="M240.5 145.5q-10.5 59.5 5.5 145.5l172 774h147l-170 -770q-22 -101 13.5 -145t119.5 -44q76 0 171 49.5t169 112.5l176 797h148l-236 -1065h-147l33 143h-4q-184 -163 -353 -163q-62 0 -111 16.5t-86 53t-47.5 96zM586 1208l43 193h180l-43 -193h-180zM909 1208l43 193 h181l-43 -193h-181z" />
<glyph unicode="&#xfd;" horiz-adv-x="909" d="M-47 -381l27 121q60 -6 77 -6q32 0 60 4t67 19t72 41t70 74.5t67 115.5l-133 1077h156l106 -813h4l430 813h156l-631 -1159q-165 -299 -426 -299q-22 0 -39.5 2t-37.5 5.5t-25 4.5zM586 1188l245 291h224l-332 -291h-137z" />
<glyph unicode="&#xfe;" horiz-adv-x="1138" d="M92 -393l416 1872h147l-118 -539h4q55 61 143 103t164 42q49 0 95 -11.5t91 -37.5t77 -68t54 -103.5t20.5 -144t-22.5 -188.5q-26 -119 -75 -216t-106.5 -158t-124.5 -102.5t-127.5 -58.5t-117.5 -17q-139 0 -254 118l-8 4l-110 -495h-148zM383 254q47 -68 110 -108 t128 -40q139 0 242.5 103t154.5 332q44 200 -12.5 308.5t-196.5 108.5q-69 0 -136.5 -32.5t-164.5 -110.5z" />
<glyph unicode="&#xff;" horiz-adv-x="909" d="M-47 -381l27 121q60 -6 77 -6q32 0 60 4t67 19t72 41t70 74.5t67 115.5l-133 1077h156l106 -813h4l430 813h156l-631 -1159q-165 -299 -426 -299q-22 0 -39.5 2t-37.5 5.5t-25 4.5zM471 1208l43 193h180l-43 -193h-180zM795 1208l43 193h180l-43 -193h-180z" />
<glyph unicode="&#x152;" horiz-adv-x="2048" d="M206.5 495.5q2.5 112.5 31.5 243.5q36 165 102 300t163.5 239.5t234.5 162.5t302 58q62 0 171.5 -10t164.5 -10h883l-31 -140h-723l-110 -495h514l-31 -139h-514l-125 -566h764l-31 -139h-923q-55 0 -169 -10t-175 -10q-133 0 -231 38t-156.5 105.5t-86 163.5t-25 208.5z M401 739q-68 -305 14 -462.5t316 -157.5q173 0 269.5 60t129.5 206l156 709q33 146 -37 206t-243 60q-234 0 -385.5 -158t-219.5 -463z" />
<glyph unicode="&#x153;" horiz-adv-x="1593" d="M166 532q56 255 202 404t330 149q228 0 303 -190q132 190 381 190q79 0 141.5 -27.5t105.5 -86.5t52.5 -150t-16.5 -219l-20 -98h-656q-20 -90 -21 -161t19.5 -125t69 -83t123.5 -29q94 0 177 48.5t136 132.5l102 -60q-33 -49 -72.5 -90t-94 -78t-125.5 -58t-152 -21 q-129 0 -205.5 46t-103.5 148q-158 -194 -387 -194q-184 0 -265.5 149t-23.5 403zM311.5 218q44.5 -112 171.5 -112q133 0 226 110.5t139 315.5q93 426 -176 426q-127 0 -221 -111.5t-138 -314.5q-46 -202 -1.5 -314zM1020 631h504q34 149 -14 238t-167 89q-242 0 -323 -327 z" />
<glyph unicode="&#x178;" horiz-adv-x="1138" d="M360 1479h181l207 -678l505 678h181l-646 -856l-137 -623h-164l138 623zM668 1577l43 192h180l-43 -192h-180zM991 1577l43 192h180l-43 -192h-180z" />
<glyph unicode="&#x2c6;" horiz-adv-x="569" d="M250 1188l264 291h193l141 -291h-164l-96 192l-174 -192h-164z" />
<glyph unicode="&#x2dc;" horiz-adv-x="569" d="M203 1206q31 98 101 161t167 63q57 0 141 -37q84 -39 125 -39q38 0 69.5 25t45.5 65h102q-27 -83 -97 -151t-148 -68q-53 0 -150 39t-147 39q-32 0 -65.5 -31.5t-41.5 -65.5h-102z" />
<glyph unicode="&#x2000;" horiz-adv-x="983" />
<glyph unicode="&#x2001;" horiz-adv-x="1966" />
<glyph unicode="&#x2002;" horiz-adv-x="983" />
<glyph unicode="&#x2003;" horiz-adv-x="1966" />
<glyph unicode="&#x2004;" horiz-adv-x="655" />
<glyph unicode="&#x2005;" horiz-adv-x="491" />
<glyph unicode="&#x2006;" horiz-adv-x="327" />
<glyph unicode="&#x2007;" horiz-adv-x="327" />
<glyph unicode="&#x2008;" horiz-adv-x="245" />
<glyph unicode="&#x2009;" horiz-adv-x="393" />
<glyph unicode="&#x200a;" horiz-adv-x="109" />
<glyph unicode="&#x2010;" horiz-adv-x="681" d="M186 469l29 127h516l-29 -127h-516z" />
<glyph unicode="&#x2011;" horiz-adv-x="681" d="M186 469l29 127h516l-29 -127h-516z" />
<glyph unicode="&#x2012;" horiz-adv-x="681" d="M186 469l29 127h516l-29 -127h-516z" />
<glyph unicode="&#x2013;" d="M106 481l23 103h1024l-23 -103h-1024z" />
<glyph unicode="&#x2014;" horiz-adv-x="2048" d="M106 481l23 103h2048l-23 -103h-2048z" />
<glyph unicode="&#x2018;" horiz-adv-x="569" d="M395 983l51 225l193 291h86l-160 -291h82l-51 -225h-201z" />
<glyph unicode="&#x2019;" horiz-adv-x="569" d="M389 963l162 290h-82l49 226h201l-49 -226l-195 -290h-86z" />
<glyph unicode="&#x201a;" horiz-adv-x="569" d="M113 -291l159 291h-82l50 225h200l-49 -225l-192 -291h-86z" />
<glyph unicode="&#x201c;" d="M428 983l51 225l193 291h86l-160 -291h82l-51 -225h-201zM846 983l51 225l193 291h86l-160 -291h82l-51 -225h-201z" />
<glyph unicode="&#x201d;" d="M393 963l162 290h-82l49 226h201l-49 -226l-195 -290h-86zM811 963l162 290h-82l49 226h201l-49 -226l-195 -290h-86z" />
<glyph unicode="&#x201e;" d="M117 -291l159 291h-81l49 225h200l-49 -225l-192 -291h-86zM535 -291l159 291h-82l50 225h200l-49 -225l-192 -291h-86z" />
<glyph unicode="&#x2022;" d="M305 739q34 154 165.5 261.5t285.5 107.5t238 -107.5t50 -261.5t-166 -262t-286 -108t-237.5 108t-49.5 262z" />
<glyph unicode="&#x2026;" horiz-adv-x="2048" d="M242 0l49 225h201l-50 -225h-200zM924 0l49 225h201l-50 -225h-200zM1606 0l49 225h200l-49 -225h-200z" />
<glyph unicode="&#x202f;" horiz-adv-x="393" />
<glyph unicode="&#x2039;" horiz-adv-x="681" d="M229 532l338 324h144l-336 -324l192 -323h-139z" />
<glyph unicode="&#x203a;" horiz-adv-x="681" d="M209 209l336 323l-193 324h144l194 -324l-342 -323h-139z" />
<glyph unicode="&#x205f;" horiz-adv-x="491" />
<glyph unicode="&#x20ac;" horiz-adv-x="1251" d="M162 492l71 126h127l39 181h-170l72 127h127q26 115 84 219t139 182.5t188.5 125t223.5 46.5q40 0 74 -3t80.5 -16t84.5 -34.5t76.5 -62.5t65.5 -97l-94 -168q-9 29 -20.5 55.5t-37.5 65t-58 66t-84 47.5t-114 20q-76 0 -144 -27.5t-118 -72.5t-90.5 -104.5t-65.5 -119.5 t-40 -122h663l-72 -127h-616l-39 -181h555l-72 -126h-512q-32 -164 47 -275t230 -111q72 0 135 17t115 51t83.5 60.5t73.5 68.5l-39 -170q-169 -153 -395 -153q-112 0 -197 40t-134.5 109.5t-68 162.5t-3.5 200h-170z" />
<glyph unicode="&#x2122;" horiz-adv-x="2027" d="M414 1368l24 111h660l-25 -111h-262l-162 -733h-139l162 733h-258zM1034 635l187 844h215l112 -639l387 639h215l-186 -844h-139l155 704h-4l-432 -704h-90l-121 704h-4l-155 -704h-140z" />
<glyph unicode="&#xe000;" horiz-adv-x="1064" d="M0 0v1065h1065v-1065h-1065z" />
</font>
</defs>
</svg>
